<?xml version="1.0" encoding="UTF-8"?>
<svg version="1.1" viewBox="0 0 1600 1600" width="1280" height="1280" xmlns="http://www.w3.org/2000/svg">
<path transform="translate(782,50)" d="m0 0h34l23 2 24 4 27 7 22 8 20 9 21 11 18 12 16 12 13 11 15 14 12 13 9 11 13 18 13 21 10 19 11 27 7 23 6 27 3 22 1 17v26l-1 22-4 33-6 29-7 24-9 24-12 24-12 19-10 13-11 13-16 16-7 6-1 2 14 1 45 7 41 8 40 10 32 10 18 7v-28l3-22 6-22 8-19 9-17 8-11 2-3-1-4-10-14-7-12-7-18-4-17-1-8v-24l3-18 6-18 8-16 9-13 9-10 10-10 14-10 15-8 21-7 19-3h22l19 3 18 6 16 8 13 9 12 11 7 7 10 14 10 19 6 19 3 20v16l-2 17-6 21-8 17-8 12-9 11-8 8 1 14 4 38 2 30v59l-2 26-3 23-5 26-7 24-8 21-10 20-10 15-9 11-11 11-12 9-15 9-17 8-23 7-26 5-17 2-17 1h-26l-29-2-39-5-45-9-10-3 1 125 20 10 21 13 19 14 14 12 22 22 13 17 12 19 8 16 6 14 6 18 5 22 2 15 1 14v20l-2 26-4 24-6 24-9 25-9 20-10 18-14 21-10 13-11 13-14 15-7 7-8 7-13 10 2 6 6 15 3 14v15l-2 12-5 14-7 11-9 10-9 8-16 8-15 4-10 1h-44l-15-2-16-6-12-8-7-6-8-10-9-16-33-66-2-6v-9l5-15 28-70 9-23v-2l-23-14-19-14-9-7h-182l-18 14-20 13-12 7h-2l6 16 17 43 12 30 7 18 1 4v8l-5 13-34 68-9 13-11 11-11 7-11 5-13 3-10 1h-44l-15-2-13-5-11-6-12-11-7-8-7-12-5-16-1-5v-20l4-16 7-15v-2l-13-10-17-16-7-7-7-8-11-13-14-19-12-20-11-21-10-25-7-24-5-24-3-28v-35l3-23 6-25 7-20 10-21 11-18 13-17 11-12 7-8 12-11 14-11 14-10 18-11 23-12 1-125-15 4-36 7-35 5-21 2-18 1h-27l-25-2-20-3-24-6-20-8-19-10-12-9-10-9-8-8-10-13-12-21-8-18-8-24-6-25-4-25-3-32-1-25v-21l2-40 6-60-10-10-11-15-8-15-7-19-3-14-1-8v-22l3-18 7-21 9-17 9-12 9-10 7-7 14-10 14-8 16-6 17-4 9-1h22l14 2 15 4 17 7 13 8 13 10 11 11 9 12 8 14 6 14 5 18 2 16v14l-2 18-6 21-8 17-8 12-7 9 7 11 6 9 9 17 7 19 5 20 3 24v24l24-9 26-8 40-10 46-9 47-7h7l-28-28-11-14-10-14-9-15-8-16-8-18-9-27-6-26-4-24-3-33v-43l3-27 5-25 6-22 9-24 13-27 9-15 10-15 13-17 10-11 7-8 12-12 11-9 12-10 24-16 18-10 23-11 25-9 27-7 24-4zm8 50-16 4-16 8-13 11-9 12-7 14-3 11-1 7v17l4 17 7 14 7 9 4 5 13 10 15 7 11 3 7 1h10l11-4 7-7 3-6 1-5v-7l-4-10-5-6-7-4-20-4-7-5-4-6-2-6v-10l3-8 5-6 7-4 4-1h12l16 3 14 6 11 8 3 3h2l2 4 8 10 7 15 3 11 1 7v13l-3 16-5 12-6 10-9 10-8 7-16 8-14 4-8 1h-13l-21-3-18-6-16-8-11-7-11-9-9-9-9-12-9-15-6-15-5-21-1-8v-22l3-18 4-14-1-3-17 10-17 12-13 11-12 11-8 8-9 11-13 17-11 18-9 17-10 25-7 24-4 21-2 21v36l3 32 5 27 7 25 8 21 11 22 10 15 11 14 11 12 8 7 10 8 18 12 15 8 24 10 24 7 26 5 26 3 18 1h31l28-2 32-5 26-7 22-8 16-8 11-6 16-11 13-11 16-16 10-13 9-14 10-19 9-23 7-24 5-26 3-24 1-23v-22l-3-29-6-27-8-24-11-24-13-22-11-15-11-13-9-10-9-9-11-9-10-8-18-12-18-10-20-9-27-9-23-5-25-3zm-525 250-16 4-14 7-10 8-9 9-8 13-5 12-3 14v17l4 17 7 14 7 9 10 10 10 8 4 8 1 3-1 17-5 38-3 42v61l3 32 5 27 5 19 8 21 9 17 9 12 11 11 14 9 18 8 22 6 22 3 15 1h30l34-3 33-5 33-7 29-8 12-3h8l9 3 5 4 5 9 1 5 1 153h450l1-155 4-9 4-5 10-5h10l19 5 26 7 29 6 33 5 20 2 17 1h25l24-2 18-3 15-4 16-6 14-8 10-8 9-9 9-14 8-16 7-19 6-23 4-25 2-19 1-16v-48l-2-35-4-37-3-22v-11l5-10 16-14 9-10 8-15 4-15 1-7v-12l-3-16-5-12-6-10-8-10-10-8-12-7-11-4-11-2h-19l-16 4-16 8-13 11-9 12-7 14-3 11-1 7v17l4 16 4 9 6 10 9 10 14 13 4 10v9l-4 9-9 11-9 10-9 14-8 16-6 20-2 14-1 17 2 25 4 25v7l-4 10-5 5-7 4-11 1-9-3-26-13-25-10-28-9-31-8-32-7-41-7-44-6-51-5h-13l-25 7-24 5-29 4-30 2h-28l-32-2-28-4-28-6-20-6h-15l-58 6-49 7-37 7-31 7-29 8-27 9-26 11-21 11-8 2-10-1-8-4-6-8-2-6v-10l4-24 1-10v-28l-3-20-5-16-9-19-10-14-12-14-6-8-2-5v-11l4-9 8-8 8-7 8-9 8-16 3-9 2-12v-13l-3-15-5-12-7-12-9-10-14-10-14-6-14-3zm320 675 1 5 12 30 9 20 12 25 12 23 12 20 10 15 10 14 13 16 12 13 13 13 8 6h181l5-3 12-11 13-13 9-11 13-17 16-24 14-24 16-31 14-31 13-33v-2zm-52 9-19 11-14 10-10 8-13 12-9 9-11 14-9 14-8 15-8 21-5 21-2 18v30l3 24 6 25 7 20 9 20 11 19 11 16 13 16 12 13 12 12 11 9 16 12 7 5 5 9 1 4v8l-5 13-11 22-2 6v10l4 9 4 5 9 5 5 1h44l9-3 7-5 6-10 28-56-1-7-33-83-9-22-22-22-5-9-1-3v-10l4-9 4-5 7-4 4-1h10l9 4 8 7 7 7 5-2 24-15 2-4-13-13-9-11-11-13-13-18-10-15-11-18-9-16-12-23-12-25-12-28-9-24-4-10zm532 0-7 18-11 28-15 33-13 26-14 24-9 15-13 19-12 16-9 11-13 15-10 10 9 7 20 12h4l13-13 10-4h9l9 3 5 4 5 9 1 4v8l-4 10-9 10-15 15-12 29-31 78 1 7 30 60 5 6 9 5 5 1h43l10-3 6-4 6-10 1-4v-8l-5-13-11-22-2-6v-10l3-8 5-6 17-12 11-9 13-12 13-13 9-11 10-13 10-16 9-16 10-23 6-19 5-22 3-28v-20l-2-21-5-22-7-19-11-21-12-17-10-11-7-8-11-10-20-15-15-9-8-5z" fill="#CC67C4"/>
<path transform="translate(1025,850)" d="m0 0h1v94l5 2 1 4h2l1-5 4-2 9-2 1-1h5l1 1h6l6-3h2v-2l3 1 1 1 1-54h1l1 99 20 10 21 13 19 14 14 12 22 22 13 17 12 19 8 16 6 14 6 18 5 22 2 15 1 14v20l-2 26-4 24-6 24-9 25-9 20-10 18-14 21-10 13-11 13-14 15-7 7-8 7-13 10 2 6 6 15 3 14v15l-2 12-5 14-7 11-9 10-9 8-16 8-15 4-10 1h-44l-15-2-16-6-12-8-7-6-8-10-9-16-33-66-2-6v-9l5-15 28-70 9-23v-2l-23-14-19-14-9-7h-182l-18 14-20 13-12 7h-2l6 16 17 43 12 30 7 18 1 4v8l-5 13-34 68-9 13-11 11-11 7-11 5-13 3-10 1h-44l-15-2-13-5-11-6-12-11-7-8-7-12-5-16-1-5v-20l4-16 7-15v-2l-13-10-17-16-7-7-7-8-11-13-14-19-12-20-11-21-10-25-7-24-5-24-3-28v-35l3-23 6-25 7-20 10-21 11-18 13-17 11-12 7-8 12-11 14-11 14-10 18-11 23-12 1-124h1l1 79 1 11 6-1 4-6 7-1h7l11 3 7 5v2l2-1 1-9 1-50h1v84h450zm-440 175 1 5 12 30 9 20 12 25 12 23 12 20 10 15 10 14 13 16 12 13 13 13 8 6h181l5-3 12-11 13-13 9-11 13-17 16-24 14-24 16-31 14-31 13-33v-2zm-52 9-19 11-14 10-10 8-13 12-9 9-11 14-9 14-8 15-8 21-5 21-2 18v30l3 24 6 25 7 20 9 20 11 19 11 16 13 16 12 13 12 12 11 9 16 12 7 5 5 9 1 4v8l-5 13-11 22-2 6v10l4 9 4 5 9 5 5 1h44l9-3 7-5 6-10 28-56-1-7-33-83-9-22-22-22-5-9-1-3v-10l4-9 4-5 7-4 4-1h10l9 4 8 7 7 7 5-2 24-15 2-4-13-13-9-11-11-13-13-18-10-15-11-18-9-16-12-23-12-25-12-28-9-24-4-10zm532 0-7 18-11 28-15 33-13 26-14 24-9 15-13 19-12 16-9 11-13 15-10 10 9 7 20 12h4l13-13 10-4h9l9 3 5 4 5 9 1 4v8l-4 10-9 10-15 15-12 29-31 78 1 7 30 60 5 6 9 5 5 1h43l10-3 6-4 6-10 1-4v-8l-5-13-11-22-2-6v-10l3-8 5-6 17-12 11-9 13-12 13-13 9-11 10-13 10-16 9-16 10-23 6-19 5-22 3-28v-20l-2-21-5-22-7-19-11-21-12-17-10-11-7-8-11-10-20-15-15-9-8-5z" fill="#5B9DEA"/>
<path transform="translate(782,50)" d="m0 0h34l23 2 24 4 27 7 22 8 20 9 21 11 18 12 16 12 13 11 15 14 12 13 9 11 13 18 13 21 10 19 11 27 7 23 6 27 3 22 1 17v26l-1 22-4 33-6 29-7 24-9 24-12 24-12 19-10 13-9 11-6 2-1 2-1-7 2-2-2-1v-8h-3-6l-5-2-5 3h-4l-3-1-1-13 1-5-2-1 3-7 8-10 9-14 10-19 9-23 7-24 5-26 3-24 1-23v-22l-3-29-6-27-8-24-11-24-13-22-11-15-11-13-9-10-8-8-11-9-10-8-18-12-18-10-20-9-27-9-23-5-25-3h-27l-16 4-16 8-13 11-8 11-7 14-3 11-1 7v17l4 17 7 14 7 9 3 3v2l4 2 11 8 13 6 11 3 7 1h10l11-4 7-8 3-9v-7l-4-10-4-5-7-4-20-4-8-6-4-6-2-6v-10l3-8 6-7 7-4 4-1h12l16 3 14 6 11 8 5 4 11 14 7 15 3 11 1 7v13l-3 16-5 12-6 10-9 10-9 8-16 8-14 4-8 1h-13l-21-3-18-6-16-8-11-7-11-9-10-10-9-12-9-15-6-15-5-21-1-8v-22l3-18 4-16-17 10-17 12-13 11-12 11-7 7-9 11-13 17-11 18-9 17-10 25-7 24-4 21-2 21v36l3 32 5 27 7 25 8 21 11 22 10 15 11 14 6 7h-3l-1-3-8-1 2 6 1 8-2 2-9 3-6 7-1 3-6 1-8-7-1 1 2 4 2 2v3l4 2 5 3 6 7v5l-4-2-17-17-11-14-10-14-9-15-8-16-8-18-9-27-6-26-4-24-3-33v-43l3-27 5-25 6-22 9-24 13-27 9-15 10-15 13-17 10-11 7-8 12-12 11-9 12-10 24-16 18-10 23-11 25-9 27-7 24-4z" fill="#F15467"/>
<path transform="translate(1025,850)" d="m0 0h1v94l5 2 1 4h2l1-5 4-2 9-2 1-1h5l1 1h6l6-3h2v-2l3 1 1 1 1-54h1l1 99 20 10 21 13 19 14 14 12 22 22 13 17 12 19 8 16 6 14 6 18 5 22 2 15 1 14v20l-2 26-4 24-6 24-9 25-9 20-10 18-14 21-8 11-4-1-4 4h-2l-1 3h-2l-1 3h-5l-1 3h-2l1-4-16 8-9 5-5 1-1-4v2l-7 1v-2l-4 1h-7l-2-6v-9l-1-2 8-7 14-14 9-11 10-13 10-16 9-16 10-23 6-19 5-22 3-28v-20l-2-21-5-22-7-19-11-21-12-17-10-11-7-8-10-9-20-15-25-15-3 10-8 21-2-1v-3h-2v-2l-4-1-2 5-8 6-4 7-9 6-4 2h-6l-1-4-8 2-3-4-1-8-3-1 11-27 7-17h-430l12 30-1 2-1 4 1 2-1 3h-2l-1 5-4-1v9l-6 2-4 4-5-1-1 6-2 3h-2l-1-4h-6l1 5-2 4-11-25-10-26-4-11v-2l-21 12-14 10-10 8-13 12-8 8-11 14-9 14-8 15-8 21-5 21-2 18v30l3 24 6 25 7 20 9 20 11 19 11 16 6 8 1 5 4 7 5 5 6 7v2h2l9 12v2h2l5 5 1 2-13-3v5l-3 1-2 3-9 1v2l-4-1v-2h-4v3l-5 1-6-2-16-15-8-7v-2l-5-2-4-7v-2l-4 1-12-17-13-23-9-19-9-24-7-26-4-24-2-20v-35l3-23 6-25 7-20 10-21 11-18 13-17 11-12 7-8 12-11 14-11 14-10 18-11 23-12 1-124h1l1 79 1 11 6-1 4-6 7-1h7l11 3 7 5v2l2-1 1-9 1-50h1v84h450z" fill="#8E83ED"/>
<path transform="translate(235,544)" d="m0 0 3 1v13l-3 42v61l3 32 5 27 5 19 8 21 9 17 9 12 10 10 14 9 18 8 22 6 22 3 15 1h30l34-3 33-5 33-7 29-8 12-3h8l9 3 6 5 5 9 1 5v69l-1 54-2 6h-2l-4-4-6-3-11-2h-8l-4 2-3 5-7 1-1-12-1-79-20 4-37 7-38 5-30 2h-27l-25-2-20-3-24-6-20-8-19-10-12-9-10-9-8-8-10-13-12-21-8-18-8-24-6-25-4-25-3-32-1-25v-21l1-25 3-4h2l1-7-1-3v-12l1-3v-7l3 1v12l2 1 1 1 10-4 2-1 1-4 7-2 1-1 1-7h2v4l6 2 4-4 4-10z" fill="#B573EA"/>
<path transform="translate(1405,547)" d="m0 0h2l3 6 2-3 3 33 1 17v59l-2 26-3 23-5 26-7 24-8 21-10 20-10 15-9 11-11 11-12 9-15 9-17 8-23 7-26 5-17 2-17 1h-26l-29-2-39-5-45-9-10-3v26l-1 49-1 5-4-2v2l-8 4h-6l-1-1h-5l-7 2-4 2-2 2-2 3h-2l-2-4-4-2-1-94v-30l4-9 5-6 10-5h10l19 5 26 7 29 6 33 5 20 2 17 1h25l24-2 18-3 15-4 16-6 14-8 10-8 8-8 9-14 8-16 7-19 6-23 4-25 2-19 1-16v-48l-1-21v-17l1-3 2-1-3-4v-2l3-1 2 5 2-2 2 13 3 3 2-7 2-3h2v-2l10-3 6-5h2l2-5z" fill="#B573EA"/>
<path transform="translate(1314,300)" d="m0 0h22l19 3 18 6 16 8 13 9 12 11 7 7 10 14 10 19 6 19 3 20v16l-2 17-6 21-8 17-8 12-9 11-8 8 1 14 2 18-2 4-2-2-1-5h-2l-2 5-3 5-5 4-5 3-8 1v2l-4 4-2 6-3-1-3-12-3-2-1-3h-2l4 7h-3l-1 6h-1l-4-37-3-22v-11l5-10 9-8 8-7 8-9 8-15 4-15 1-7v-12l-3-16-5-12-6-10-7-9-10-8-12-7-11-4-11-2h-19l-16 4-16 8-13 11-9 13-6 12-3 11-1 7v17l4 16 4 9 6 10 9 10 14 13 4 10v9l-4 9-9 11-9 10-4 6-3 1-5 5h-2l-1 3h-2v-6l-9-2-3 4h-3v3l-10 2-3-1-2 7v1h-6l-2 2v-2l-2-1-2-3-1 2-1 7-4 6v3h-2v5l-6 3 1-9 6-20 8-18 10-18 8-11-1-4-10-14-7-12-7-18-4-17-1-8v-24l3-18 6-18 8-16 9-13 9-10 10-10 14-10 15-8 21-7z" fill="#DC5F99"/>
<path transform="translate(265,301)" d="m0 0h22l14 2 15 4 17 7 13 8 13 10 11 11 9 12 8 14 6 14 5 18 2 16v14l-2 18-6 21-8 17-8 12-7 9 7 11 6 9 2 5-2 3h-2v6l3 5-1 4-5-1-1 4-3 1v5l-5 4-2 2-2 7-3-4h-6v-3h-2l3 8 1 9 1 2v9l-4 2-6-22-10-21-10-14-12-14-6-8-2-5v-11l4-9 9-9 8-7 7-8 8-16 3-9 2-12v-13l-3-15-5-12-7-12-8-9-14-10-14-6-14-3h-19l-16 4-14 7-10 8-8 8-8 13-5 12-3 14v17l4 17 7 14 7 9 9 9 10 8 5 9 1 3-1 17-4 30h-1l-1-5-3 1-4 11-5 3-5-3v-4h-2v7l-3 3-6 1-1 4-8 4h-3l-1 2-2-1-2-5v-8l1-2h-2v7l-1 5v10l1 4-2 6h-2l-2 4v-16l6-60-10-10-11-15-8-15-7-19-3-14-1-8v-22l3-18 7-21 9-17 9-12 9-10 7-7 14-10 14-8 16-6 17-4z" fill="#DC5F99"/>
<path transform="translate(623,107)" d="m0 0v3l-4 6h-2v3h-2l-1 2h-2l1 4-4 2v2l-4 4-5 6h-2l-2 4h-2v2l-6 5-2 1-2 4-5 5h8l7-3h4v-2h7l5 2 4 1-1 11-3 3v9h-2l-2 5v7l-12 16-11 18-9 17-10 25-7 24-4 21-2 21v36l3 32 5 27 7 25 8 21 11 22 10 15 11 14 6 7h-3l-1-3-8-1 2 6 1 8-2 2-9 3-6 7-1 3-6 1-8-7-1 1 2 4 2 2v3l4 2 5 3 6 7v5l-4-2-17-17-11-14-10-14-9-15-8-16-8-18-9-27-6-26-4-24-3-33v-43l3-27 5-25 6-22 9-24 13-27 9-15 10-15 13-17 10-11 7-8 12-12 11-9 12-10z" fill="#DD5E98"/>
<path transform="translate(992,146)" d="m0 0h7l12 5 5 3 4 3 5 2 2 2h4l1-2 10 13 7 10 13 21 10 19 11 27 7 23 6 27 3 22 1 17v26l-1 22-4 33-6 29-7 24-9 24-12 24-12 19-10 13-9 11-6 2-1 2-1-7 2-2-2-1v-8h-3-6l-5-2-5 3h-4l-3-1-1-13 1-5-2-1 3-7 8-10 9-14 10-19 9-23 7-24 5-26 3-24 1-23v-22l-3-29-6-27-8-24-11-24-13-22-11-15-11-13-8-9h3l4 1v-3-3l-4-2-2-5h4l2-5h4l-2-7 3-4z" fill="#DD5E98"/>
<path transform="translate(665,1337)" d="m0 0 4 4 11 28 12 30 7 18 1 4v8l-5 13-34 68-9 13-11 11-11 7-11 5-13 3-10 1h-44l-15-2-13-5-11-6-12-11-7-8-7-12-5-16-1-5v-20l4-16 7-15v-2l-13-10-17-16-7-7-7-8-11-13-5-7 1-3 3 3 3 6 5 3 5 6 8 7 12 11 10 1v-3h4v2l4 1-1-3 10-1 2-3h3v-5l7 1 5 1-5-4v-2h-2l-4-6-5-6v-2h-2l-8-10-1-3-3-1-5-9v-2l4 2 9 11 18 18 11 9 24 18 5 9 1 4v8l-5 13-11 22-2 6v10l4 9 5 5 7 4 5 1h44l9-3 6-4 6-10 28-56-1-7-13-33v-4l4 1 11 15 5 4v-2l8-2 8-6 2-8 4-1-4-20-5-16z" fill="#22B6EA"/>
<path transform="translate(923,1363)" d="m0 0 2 4-3 11-2 4-1 8-1 4v5l4 1 5 4 6-1 13-9 8-8 6-2h2l5-7 2-4 3-1-1 6-17 43 1 7 30 60 4 5 9 5 5 1h43l10-3 5-3 6-10 1-4v-8l-5-13-11-22-2-6v-10l3-8 6-7 17-12 11-9 2-2 3 1v11l1 3h11v2l7-1v-2l2 1v2l7-3 19-10h3l-1 4 3-3 5-1 4-5 7-5h2l-1 4-11 13-14 15-7 7-8 7-13 10 2 6 6 15 3 14v15l-2 12-5 14-7 11-9 10-9 8-16 8-15 4-10 1h-44l-15-2-16-6-12-8-7-6-8-10-9-16-33-66-2-6v-9l5-15 17-42z" fill="#22B6EA"/>
<path transform="translate(479,1058)" d="m0 0h4v4l2 2 5-5 1 2-3 5-10 9-9 9-11 14-9 14-8 15-8 21-5 21-2 18v30l3 24 6 25 7 20 9 20 11 19 11 16 6 8 1 5 4 7 5 5 6 7v2h2l9 12v2h2l5 5 1 2-13-3v5l-3 1-2 3-9 1v2l-4-1v-2h-4v3l-5 1-6-2-16-15-8-7v-2l-5-2-4-7v-2l-4 1-12-17-13-23-9-19-9-24-7-26-4-24-2-20v-35l3-23 6-25 7-20 10-21 11-18 7-5v10l2-1 10 1 4 2 6-2 1 2 16-12 10-6z" fill="#5B9DEA"/>
<path transform="translate(1172,1058)" d="m0 0 6 4 9 12 11 18 8 16 8 20 6 22 4 25 1 14v20l-2 26-4 24-6 24-9 25-9 20-10 18-14 21-8 11-4-1-4 4h-2l-1 3h-2l-1 3h-5l-1 3h-2l1-4-16 8-9 5-5 1-1-4v2l-7 1v-2l-4 1h-7l-2-6v-9l-1-2 8-7 14-14 9-11 10-13 10-16 9-16 10-23 6-19 5-22 3-28v-20l-2-21-5-22-7-19-11-21-12-17-9-10v-4l6-1 4 1h10l1-2 4 1h8l1-6 3 1-1-5-2-2 3-3 5-1z" fill="#5B9DEA"/>
<path transform="translate(679,142)" d="m0 0h4l1 2 1 12v30l2-2 2-5h2l2-6 1-2h2l2-8h4l2-5 8-2 5 1 2 3 1-2 4-1 2 3v24l4 17 7 14 7 9 3 3v2l4 2 11 8 13 6 11 3 7 1h10l11-4 7-8 3-9v-7l-4-10-4-5-7-4-20-4-8-6-4-6-2-6v-10l3-8 6-7 7-4 4-1h12l16 3 14 6 11 8 5 4 11 14 7 15 3 11 1 7v13l-3 16-5 12-6 10-9 10-9 8-16 8-14 4-8 1h-13l-21-3-18-6-16-8-11-7-11-9-10-10-9-12-9-15-6-15-5-21-1-8v-22l3-18z" fill="#DD5E98"/>
<path transform="translate(740,440)" d="m0 0h20l12 3 14 8 8 7 9 1 6-4 9-7 13-6 8-2h21l12 3 14 8 12 11 21 21 5 9 1 3v9l-4 10-4 5-9 5-11 1-9-3-8-6-24-24-7-2-6 3-10 8-13 6-13 3h-15l-13-3-12-6-13-10-5-1-6 3-26 26-9 5-11 1-10-3-6-5-6-12v-10l4-9 7-8 26-26 14-8 9-3z" fill="#DC5F99"/>
<path transform="translate(644,300)" d="m0 0h10l17 5 60 20 10 5 6 7 3 9v9l-6 12-12 9-11 7-51 34-12 7-11 1-10-3-6-5-5-9-1-3v-10l3-8 6-7 33-22-27-10-8-5-5-7-2-6v-11l5-10 7-6z" fill="#DD5F99"/>
<path transform="translate(946,300)" d="m0 0h7l9 3 8 7 4 8 1 10-3 9-7 8-10 5-22 7 4 4 16 10 11 8 5 4 4 6 2 6v10l-4 9-5 6-8 4-5 1h-7l-8-3-16-10-43-29-18-12-5-4-4-6-2-6v-10l4-10 8-7 16-6 63-21z" fill="#DD5F99"/>
<path transform="translate(1405,547)" d="m0 0h2l3 6 2-3 3 33 1 17v59l-2 26-3 23-5 26-2 7-3-2-5 5-1 2h-2l-1 4h-3l-3-6-1-3 1-4h-4l-1 4-8 1-1 3-8-1-1 3-4 1-2-3 1-21-2-1 4-20 3-22 2-26v-48l-1-21v-17l1-3 2-1-3-4v-2l3-1 2 5 2-2 2 13 3 3 2-7 2-3h2v-2l10-3 6-5h2l2-5z" fill="#CC67C4"/>
<path transform="translate(235,544)" d="m0 0 3 1v13l-3 42v61l3 32 3 18-1 4-4 1-1 9-3 3h-3l-4 8 1 4-9 7 1 5-7 2-3-2v-2l-3-1-2-4-1 1-4 3-6-23-5-30-3-32-1-25v-21l1-25 3-4h2l1-7-1-3v-12l1-3v-7l3 1v12l2 1 1 1 10-4 2-1 1-4 7-2 1-1 1-7h2v4l6 2 4-4 4-10z" fill="#CC67C4"/>
<path transform="translate(1145,225)" d="m0 0h9l11 4 46 23 9 7 4 7 1 4v10l-3 8-6 7-8 4-11 1-10-3-48-24-8-6-5-9-1-4v-8l4-10 5-6 8-4z" fill="#DD5F99"/>
<path transform="translate(394,100)" d="m0 0h11l10 4 46 23 8 6 5 9 1 4v8l-4 10-7 7-7 3-9 1-9-2-50-25-9-7-5-10v-12l5-10 7-6z" fill="#F15468"/>
<path transform="translate(1195,100)" d="m0 0h11l10 5 6 7 3 8v10l-4 9-4 5-23 12-34 17-8 2-10-1-8-4-6-7-3-8v-10l4-10 8-7 52-26z" fill="#F15468"/>
<path transform="translate(445,225)" d="m0 0h9l9 3 5 4 6 10 1 5v7l-4 10-7 7-42 21-15 7-10 1-10-3-7-6-4-8-1-3v-10l4-10 8-7 52-26z" fill="#DD5F99"/>
<path transform="translate(1410,664)" d="m0 0h2l2 3h1l-1 18-3 23-5 26-2 7-3-2-5 5-1 2h-2l-1 4h-3l-3-6-1-3 1-4h-4l-1 4-8 1-1 3-8-1-1 3-4 1-2-3 1-21-2-1 4-20 2-13 4-2h3l2 3 2-4 4-1 1-2 1-4 2-4 6-5 7-3h4v3h3l1 5 4 4v-7z" fill="#C76AD4"/>
<path transform="translate(233,662)" d="m0 0 2 4 4 34 2 11-1 4-4 1-1 9-3 3h-3l-4 8 1 4-9 7 1 5-7 2-3-2v-2l-3-1-2-4-1 1-4 3-6-23-5-30-1-9v-9h2l-1-3h2l2 4 1 7 4 9v3l2-1v-7l4-3h2v-10l2-2 6-3h2v-5l4-1 3 3-1 3 3 1v3l5-2 3-3z" fill="#C76AD4"/>
<path transform="translate(795,150)" d="m0 0h12l16 3 14 6 11 8v3l-2 1h-6l-4-3-8-2h-8l-6 2-10 2-3 3-6 2v5h-2l1 4-3 1 6 4 3 3 6 3 2 4 2 1-5 1-16-3-8-6-4-6-2-6v-10l3-8 6-7 7-4z" fill="#F0546A"/>
<path transform="translate(1192,651)" d="m0 0 5 1 3 4v4h3v2h3v3l4 1h3l2 6 7 2 10-2 1 3-7 8-13 3v4h2v3l6 1-2 5-6-2-26-13-25-10-23-8-2-6v2h-2v-2h-2l1-2 10 1 15 5 21 4 8 3h4v-1l-4-1-1-4h2l1 1v-5l7 2v-7h-2l-1-4z" fill="#C76AD3"/>
<path transform="translate(795,150)" d="m0 0h12l16 3 3 2-1 3-6 1-8-1-9-1-6-1-4 1-2 4-2 3-8 2 1-5v-3l8-6z" fill="#DE5E96"/>
<path transform="translate(429,672)" d="m0 0h2l1 4-26 11-21 11-8 1v-5l9-3 6-4 5-3 10-4 14-5 2-2z" fill="#C76AD2"/>
<path transform="translate(1151,123)" d="m0 0 7 1-5 5-6 3h-3l-2 4h-2l-1 3h-2l-1 3h-3l-1 4-2-1v-2h-2l-1 12h-2v-10l4-10 8-7 8-4 2 1-1 3h2l2-4z" fill="#DF5D93"/>
<path transform="translate(465,160)" d="m0 0 2 3-2 4h-2l1 4-7 3-9 1-6-1 2-1v-2h-2v-3l-3-1 1-2h11l9 1z" fill="#DD5E98"/>
<path transform="translate(1155,164)" d="m0 0h9l-2 1v4l-3 2 1 2-8 2-7-1 1-6 1-2 7-1z" fill="#DD5E97"/>
<path transform="translate(351,682)" d="m0 0 5 1 4 5 9 6 4 1 2 2-5 2-6-1-8-6-4-6z" fill="#C86AD1"/>
<path transform="translate(1245,680)" d="m0 0 3 1-1 6-5 7-9 5h-2v-5h3v-2l6-4 1-4z" fill="#C76AD2"/>
<path transform="translate(623,107)" d="m0 0v3l-4 6h-2v3l-6-1v-2z" fill="#E25C8C"/>
<path transform="translate(390,667)" d="m0 0 5 1 3 4-9 2v-3z" fill="#C76BD5"/>
<path transform="translate(677,195)" d="m0 0h6l-2 9-3-3z" fill="#F0546B"/>
<path transform="translate(1155,119)" d="m0 0 2 1 2 3h-7l-4 5h-2l1-5z" fill="#E9587C"/>
<path transform="translate(616,171)" d="m0 0 1 3-1 3 1 3-2 1-3-3 1-5z" fill="#DD5E97"/>
<path transform="translate(1126,141)" d="m0 0 2 2-1 12h-2v-10z" fill="#DD5F99"/>
<path transform="translate(384,673)" d="m0 0 6 2v4l-7-1z" fill="#C76BD5"/>
</svg>
